<svg xmlns="http://www.w3.org/2000/svg" xmlns:xlink="http://www.w3.org/1999/xlink" width="384" zoomAndPan="magnify" viewBox="0 0 288 149.249994" height="199" preserveAspectRatio="xMidYMid meet" version="1.0"><defs><g/><clipPath id="df6c61d3b9"><path d="M 2 29 L 90.894531 29 L 90.894531 90 L 2 90 Z M 2 29 " clip-rule="nonzero"/></clipPath><clipPath id="5d1d5acabd"><rect x="0" width="91" y="0" height="110"/></clipPath><clipPath id="6e0c48dab4"><rect x="0" width="47" y="0" height="81"/></clipPath><clipPath id="b21425d70c"><path d="M 0.445312 32 L 76.148438 32 L 76.148438 93 L 0.445312 93 Z M 0.445312 32 " clip-rule="nonzero"/></clipPath><clipPath id="5db97d5183"><rect x="0" width="77" y="0" height="114"/></clipPath><clipPath id="e115f1343f"><rect x="0" width="27" y="0" height="92"/></clipPath><clipPath id="f4e109289b"><rect x="0" width="46" y="0" height="81"/></clipPath></defs><g transform="matrix(1, 0, 0, 1, 34, 21)"><g clip-path="url(#5d1d5acabd)"><g clip-path="url(#df6c61d3b9)"><g fill="#000000" fill-opacity="1"><g transform="translate(5.18354, 85.699581)"><g><path d="M 52.125 3.417969 L 26.925781 3.417969 L 26.925781 -25.878906 C 26.925781 -26.207031 26.898438 -26.460938 26.839844 -26.632812 C 26.832031 -26.65625 26.828125 -26.671875 26.824219 -26.675781 C 26.839844 -26.652344 26.855469 -26.628906 26.878906 -26.605469 C 26.851562 -26.636719 26.828125 -26.65625 26.808594 -26.667969 L 26.820312 -26.664062 L 26.835938 -26.652344 C 26.808594 -26.652344 26.777344 -26.636719 26.738281 -26.597656 C 26.773438 -26.632812 26.804688 -26.671875 26.828125 -26.707031 L 26.828125 -26.699219 C 26.773438 -26.535156 26.746094 -26.292969 26.746094 -25.96875 L 26.746094 3.417969 L -2.507812 3.417969 L -2.507812 -26.882812 C -2.507812 -32.171875 -1.660156 -36.683594 0.03125 -40.414062 C 1.746094 -44.195312 4.082031 -47.257812 7.03125 -49.605469 C 9.898438 -51.882812 13.078125 -53.542969 16.570312 -54.578125 C 19.953125 -55.585938 23.390625 -56.085938 26.882812 -56.085938 C 29.824219 -56.085938 32.726562 -55.582031 35.585938 -54.570312 C 38.5625 -53.519531 41.265625 -51.777344 43.695312 -49.347656 L 41.28125 -46.929688 L 38.746094 -49.222656 C 40.894531 -51.59375 43.53125 -53.332031 46.65625 -54.433594 C 49.582031 -55.464844 52.46875 -56.015625 55.320312 -56.085938 L 55.402344 -56.085938 C 58.960938 -56.085938 62.453125 -55.566406 65.875 -54.527344 C 69.398438 -53.457031 72.589844 -51.765625 75.457031 -49.453125 C 78.390625 -47.082031 80.730469 -44.015625 82.472656 -40.253906 C 84.199219 -36.519531 85.066406 -32.0625 85.066406 -26.882812 L 85.066406 3.417969 L 55.8125 3.417969 L 55.8125 -25.96875 C 55.8125 -26.277344 55.789062 -26.507812 55.734375 -26.65625 C 55.742188 -26.636719 55.773438 -26.601562 55.828125 -26.550781 C 55.753906 -26.617188 55.703125 -26.652344 55.675781 -26.652344 C 55.6875 -26.652344 55.699219 -26.65625 55.71875 -26.664062 C 55.691406 -26.652344 55.644531 -26.617188 55.582031 -26.554688 C 55.605469 -26.578125 55.621094 -26.597656 55.636719 -26.621094 C 55.636719 -26.621094 55.632812 -26.609375 55.625 -26.589844 C 55.570312 -26.429688 55.539062 -26.191406 55.539062 -25.878906 L 55.539062 3.417969 Z M 52.125 -3.417969 L 52.125 0 L 48.707031 0 L 48.707031 -25.878906 C 48.707031 -28.25 49.421875 -30.121094 50.851562 -31.492188 C 52.242188 -32.824219 53.851562 -33.488281 55.675781 -33.488281 C 57.476562 -33.488281 59.066406 -32.855469 60.445312 -31.589844 C 61.914062 -30.242188 62.648438 -28.371094 62.648438 -25.96875 L 62.648438 0 L 59.230469 0 L 59.230469 -3.417969 L 81.648438 -3.417969 L 81.648438 0 L 78.230469 0 L 78.230469 -26.882812 C 78.230469 -31.058594 77.578125 -34.558594 76.269531 -37.382812 C 74.972656 -40.183594 73.269531 -42.433594 71.164062 -44.132812 C 68.988281 -45.890625 66.5625 -47.175781 63.886719 -47.988281 C 61.113281 -48.832031 58.285156 -49.253906 55.402344 -49.253906 L 55.402344 -52.671875 L 55.488281 -49.253906 C 53.359375 -49.203125 51.171875 -48.78125 48.933594 -47.988281 C 46.894531 -47.269531 45.1875 -46.152344 43.8125 -44.632812 L 41.402344 -41.976562 L 38.863281 -44.511719 C 37.164062 -46.214844 35.308594 -47.417969 33.304688 -48.128906 C 31.183594 -48.878906 29.042969 -49.253906 26.882812 -49.253906 C 24.054688 -49.253906 21.265625 -48.84375 18.515625 -48.027344 C 15.871094 -47.242188 13.460938 -45.984375 11.285156 -44.253906 C 9.195312 -42.589844 7.515625 -40.371094 6.257812 -37.589844 C 4.972656 -34.757812 4.328125 -31.1875 4.328125 -26.882812 L 4.328125 0 L 0.910156 0 L 0.910156 -3.417969 L 23.328125 -3.417969 L 23.328125 0 L 19.910156 0 L 19.910156 -25.96875 C 19.910156 -28.339844 20.613281 -30.199219 22.015625 -31.539062 C 23.371094 -32.839844 24.980469 -33.488281 26.835938 -33.488281 C 28.722656 -33.488281 30.347656 -32.804688 31.714844 -31.441406 C 33.078125 -30.074219 33.761719 -28.21875 33.761719 -25.878906 L 33.761719 0 L 30.34375 0 L 30.34375 -3.417969 Z M 52.125 -3.417969 "/></g></g></g></g><g fill="#ffffff" fill-opacity="1"><g transform="translate(5.18354, 85.699581)"><g><path d="M 52.125 0 L 30.34375 0 L 30.34375 -25.875 C 30.34375 -27.269531 29.992188 -28.316406 29.296875 -29.015625 C 28.597656 -29.722656 27.773438 -30.078125 26.828125 -30.078125 C 25.890625 -30.078125 25.070312 -29.738281 24.375 -29.0625 C 23.675781 -28.394531 23.328125 -27.363281 23.328125 -25.96875 L 23.328125 0 L 0.90625 0 L 0.90625 -26.875 C 0.90625 -31.675781 1.648438 -35.71875 3.140625 -39 C 4.628906 -42.28125 6.632812 -44.921875 9.15625 -46.921875 C 11.675781 -48.929688 14.46875 -50.390625 17.53125 -51.296875 C 20.601562 -52.210938 23.71875 -52.671875 26.875 -52.671875 C 29.425781 -52.671875 31.945312 -52.226562 34.4375 -51.34375 C 36.9375 -50.46875 39.21875 -48.992188 41.28125 -46.921875 C 43.039062 -48.867188 45.210938 -50.296875 47.796875 -51.203125 C 50.378906 -52.117188 52.914062 -52.609375 55.40625 -52.671875 C 58.625 -52.671875 61.78125 -52.195312 64.875 -51.25 C 67.976562 -50.3125 70.789062 -48.820312 73.3125 -46.78125 C 75.832031 -44.75 77.847656 -42.09375 79.359375 -38.8125 C 80.878906 -35.539062 81.640625 -31.5625 81.640625 -26.875 L 81.640625 0 L 59.234375 0 L 59.234375 -25.96875 C 59.234375 -27.363281 58.867188 -28.394531 58.140625 -29.0625 C 57.410156 -29.738281 56.585938 -30.078125 55.671875 -30.078125 C 54.765625 -30.078125 53.945312 -29.722656 53.21875 -29.015625 C 52.488281 -28.316406 52.125 -27.269531 52.125 -25.875 Z M 52.125 0 "/></g></g></g></g></g><g transform="matrix(1, 0, 0, 1, 103, 26)"><g clip-path="url(#6e0c48dab4)"><g fill="#171616" fill-opacity="1"><g transform="translate(3.472695, 62.968354)"><g><path d="M 22.988281 -39.878906 L 42.011719 -39.878906 L 42.011719 -18.257812 C 42.011719 -14.699219 41.394531 -11.550781 40.15625 -8.804688 C 38.917969 -6.046875 37.230469 -3.738281 35.085938 -1.878906 C 32.976562 -0.046875 30.617188 1.324219 28.003906 2.226562 C 25.425781 3.121094 22.800781 3.566406 20.121094 3.566406 C 17.398438 3.566406 14.75 3.121094 12.175781 2.226562 C 9.5625 1.324219 7.199219 -0.046875 5.089844 -1.878906 C 2.949219 -3.738281 1.257812 -6.046875 0.0195312 -8.804688 C -1.214844 -11.550781 -1.832031 -14.699219 -1.832031 -18.257812 L -1.832031 -39.878906 L 19.6875 -39.878906 L 19.6875 -18.921875 C 19.6875 -18.636719 19.71875 -18.410156 19.777344 -18.25 C 19.792969 -18.199219 19.808594 -18.167969 19.824219 -18.15625 C 19.964844 -18.023438 20.066406 -17.957031 20.121094 -17.957031 C 20.160156 -17.957031 20.238281 -18.011719 20.355469 -18.125 C 20.367188 -18.136719 20.382812 -18.167969 20.402344 -18.222656 C 20.460938 -18.394531 20.488281 -18.625 20.488281 -18.921875 L 20.488281 -39.878906 Z M 22.988281 -34.878906 L 22.988281 -37.378906 L 25.484375 -37.378906 L 25.484375 -18.921875 C 25.484375 -17.058594 24.929688 -15.59375 23.820312 -14.523438 C 22.738281 -13.480469 21.503906 -12.960938 20.121094 -12.960938 C 18.757812 -12.960938 17.523438 -13.46875 16.421875 -14.492188 C 15.269531 -15.566406 14.691406 -17.042969 14.691406 -18.921875 L 14.691406 -37.378906 L 17.191406 -37.378906 L 17.191406 -34.878906 L 0.667969 -34.878906 L 0.667969 -37.378906 L 3.164062 -37.378906 L 3.164062 -18.257812 C 3.164062 -15.414062 3.636719 -12.949219 4.578125 -10.851562 C 5.515625 -8.765625 6.78125 -7.03125 8.367188 -5.652344 C 9.992188 -4.242188 11.804688 -3.1875 13.808594 -2.496094 C 15.855469 -1.785156 17.960938 -1.433594 20.121094 -1.433594 C 22.242188 -1.433594 24.324219 -1.785156 26.367188 -2.496094 C 28.371094 -3.1875 30.1875 -4.242188 31.808594 -5.652344 C 33.398438 -7.03125 34.660156 -8.765625 35.601562 -10.851562 C 36.542969 -12.949219 37.011719 -15.414062 37.011719 -18.257812 L 37.011719 -37.378906 L 39.511719 -37.378906 L 39.511719 -34.878906 Z M 22.988281 -34.878906 "/></g></g></g><g fill="#ffffff" fill-opacity="1"><g transform="translate(3.472695, 62.968354)"><g><path d="M 22.984375 -37.375 L 39.515625 -37.375 L 39.515625 -18.25 C 39.515625 -15.050781 38.96875 -12.242188 37.875 -9.828125 C 36.789062 -7.410156 35.3125 -5.390625 33.4375 -3.765625 C 31.570312 -2.140625 29.484375 -0.925781 27.171875 -0.125 C 24.867188 0.664062 22.519531 1.0625 20.125 1.0625 C 17.675781 1.0625 15.296875 0.664062 12.984375 -0.125 C 10.679688 -0.925781 8.597656 -2.140625 6.734375 -3.765625 C 4.867188 -5.390625 3.390625 -7.410156 2.296875 -9.828125 C 1.210938 -12.242188 0.671875 -15.050781 0.671875 -18.25 L 0.671875 -37.375 L 17.1875 -37.375 L 17.1875 -18.921875 C 17.1875 -17.765625 17.5 -16.894531 18.125 -16.3125 C 18.75 -15.738281 19.414062 -15.453125 20.125 -15.453125 C 20.832031 -15.453125 21.484375 -15.738281 22.078125 -16.3125 C 22.679688 -16.894531 22.984375 -17.765625 22.984375 -18.921875 Z M 22.984375 -37.375 "/></g></g></g></g></g><g transform="matrix(1, 0, 0, 1, 166, 17)"><g clip-path="url(#5db97d5183)"><g clip-path="url(#b21425d70c)"><g fill="#000000" fill-opacity="1"><g transform="translate(7.281628, 88.749704)"><g><path d="M 38.605469 -55.945312 L 69.359375 -55.945312 L 51.171875 -24.511719 L 48.140625 -26.265625 L 51.113281 -28.121094 L 70.808594 3.503906 L 37.867188 3.503906 L 36.839844 1.847656 C 34.902344 -1.28125 32.976562 -4.421875 31.070312 -7.582031 C 29.183594 -10.707031 27.277344 -13.789062 25.359375 -16.820312 L 28.324219 -18.695312 L 28.324219 -15.1875 L 26.828125 -15.1875 L 26.828125 -18.695312 L 29.796875 -20.554688 L 35.347656 -11.699219 L 25.980469 3.503906 L -6.929688 3.503906 L 12.53125 -28.105469 L 15.515625 -26.265625 L 12.472656 -24.527344 L -5.480469 -55.945312 L 27.363281 -55.945312 L 35.078125 -41.160156 L 31.96875 -39.539062 L 28.851562 -41.144531 L 36.464844 -55.945312 Z M 38.605469 -48.933594 L 38.605469 -52.4375 L 41.722656 -50.835938 L 31.988281 -31.917969 L 22.128906 -50.816406 L 25.238281 -52.4375 L 25.238281 -48.933594 L 0.5625 -48.933594 L 0.5625 -52.4375 L 3.605469 -54.179688 L 19.59375 -26.199219 L 2.332031 1.835938 L -0.65625 0 L -0.65625 -3.503906 L 24.023438 -3.503906 L 24.023438 0 L 21.039062 -1.839844 L 28.234375 -13.523438 L 31.21875 -11.683594 L 28.25 -9.824219 L 20.492188 -22.199219 L 30.253906 -22.199219 L 31.285156 -20.570312 C 33.230469 -17.496094 35.160156 -14.375 37.070312 -11.207031 C 38.964844 -8.070312 40.875 -4.953125 42.800781 -1.847656 L 39.820312 0 L 39.820312 -3.503906 L 64.496094 -3.503906 L 64.496094 0 L 61.523438 1.851562 L 44.050781 -26.199219 L 60.246094 -54.195312 L 63.28125 -52.4375 L 63.28125 -48.933594 Z M 38.605469 -48.933594 "/></g></g></g></g><g fill="#ffffff" fill-opacity="1"><g transform="translate(7.281628, 88.749704)"><g><path d="M 38.609375 -52.4375 L 63.28125 -52.4375 L 48.140625 -26.265625 L 64.5 0 L 39.8125 0 C 37.882812 -3.113281 35.96875 -6.242188 34.0625 -9.390625 C 32.164062 -12.535156 30.253906 -15.632812 28.328125 -18.6875 L 26.828125 -18.6875 L 31.21875 -11.6875 L 24.015625 0 L -0.65625 0 L 15.515625 -26.265625 L 0.5625 -52.4375 L 25.234375 -52.4375 L 31.96875 -39.53125 Z M 38.609375 -52.4375 "/></g></g></g></g></g><g transform="matrix(1, 0, 0, 1, 156, 36)"><g clip-path="url(#e115f1343f)"><g fill="#000000" fill-opacity="1"><g transform="translate(3.47283, 71.593988)"><g><path d="M -2.070312 -45.019531 L 22.078125 -45.019531 L 22.078125 2.820312 L -2.070312 2.820312 Z M 3.574219 -39.378906 L 3.574219 -2.820312 L 16.4375 -2.820312 L 16.4375 -39.378906 Z M 3.574219 -39.378906 "/></g></g></g><g fill="#ffffff" fill-opacity="1"><g transform="translate(3.47283, 71.593988)"><g><path d="M 0.75 -42.203125 L 19.25 -42.203125 L 19.25 0 L 0.75 0 Z M 0.75 -42.203125 "/></g></g></g></g></g><g transform="matrix(1, 0, 0, 1, 125, 45)"><g clip-path="url(#f4e109289b)"><g fill="#171616" fill-opacity="1"><g transform="translate(3.289504, 62.96759)"><g><path d="M -1.898438 0 L -1.898438 -18.023438 L 8.59375 -18.023438 L 8.59375 -15.523438 L 6.359375 -14.40625 C 6.328125 -14.46875 6.296875 -14.523438 6.261719 -14.570312 C 6.136719 -14.75 6.019531 -14.914062 5.917969 -15.070312 L 7.996094 -16.457031 L 7.996094 -13.957031 L 2.164062 -13.957031 L 1.417969 -15.023438 C -0.417969 -17.648438 -1.390625 -20.429688 -1.496094 -23.363281 C -1.601562 -26.246094 -1.0625 -28.820312 0.117188 -31.074219 C 1.433594 -33.601562 3.132812 -35.527344 5.222656 -36.855469 C 7.222656 -38.128906 9.488281 -38.96875 12.027344 -39.378906 C 14.359375 -39.757812 16.855469 -39.945312 19.523438 -39.945312 L 41.011719 -39.945312 L 41.011719 -19.890625 L 19.523438 -19.890625 C 19.0625 -19.890625 18.738281 -19.765625 18.550781 -19.515625 C 18.296875 -19.179688 18.199219 -18.859375 18.253906 -18.550781 L 15.792969 -18.125 L 18.230469 -18.664062 C 18.304688 -18.324219 18.503906 -17.988281 18.820312 -17.660156 C 18.972656 -17.503906 19.25 -17.421875 19.65625 -17.421875 C 20.097656 -17.421875 20.359375 -17.484375 20.441406 -17.609375 C 20.652344 -17.929688 20.726562 -18.296875 20.65625 -18.710938 C 20.636719 -18.832031 20.601562 -18.921875 20.558594 -18.980469 C 20.5 -19.054688 20.394531 -19.128906 20.242188 -19.199219 L 21.320312 -23.953125 L 35.726562 -23.953125 L 36.464844 -23.167969 C 38.195312 -21.335938 39.382812 -19.378906 40.03125 -17.300781 C 40.664062 -15.269531 40.886719 -13.285156 40.699219 -11.351562 C 40.511719 -9.433594 40.011719 -7.6875 39.199219 -6.113281 C 37.867188 -3.554688 36.128906 -1.644531 33.984375 -0.378906 C 31.972656 0.804688 29.695312 1.589844 27.15625 1.972656 C 24.8125 2.324219 22.3125 2.5 19.65625 2.5 L -1.898438 2.5 Z M 3.097656 0 L 0.601562 0 L 0.601562 -2.5 L 19.65625 -2.5 C 22.0625 -2.5 24.316406 -2.65625 26.414062 -2.972656 C 28.316406 -3.257812 29.992188 -3.828125 31.445312 -4.683594 C 32.765625 -5.464844 33.871094 -6.707031 34.761719 -8.410156 C 35.277344 -9.414062 35.601562 -10.554688 35.726562 -11.835938 C 35.847656 -13.097656 35.691406 -14.425781 35.261719 -15.8125 C 34.839844 -17.15625 34.03125 -18.464844 32.828125 -19.742188 L 34.648438 -21.453125 L 34.648438 -18.957031 L 21.320312 -18.957031 L 21.320312 -21.453125 L 22.398438 -23.707031 C 23.269531 -23.292969 23.972656 -22.734375 24.515625 -22.03125 C 25.070312 -21.3125 25.425781 -20.480469 25.585938 -19.535156 C 25.871094 -17.816406 25.542969 -16.253906 24.601562 -14.839844 C 24.046875 -14.007812 23.316406 -13.386719 22.402344 -12.972656 C 21.597656 -12.609375 20.683594 -12.425781 19.65625 -12.425781 C 17.839844 -12.425781 16.363281 -13.011719 15.226562 -14.1875 C 14.257812 -15.191406 13.632812 -16.324219 13.351562 -17.582031 L 13.339844 -17.636719 L 13.328125 -17.695312 C 13.027344 -19.429688 13.4375 -21.039062 14.5625 -22.527344 C 15.753906 -24.101562 17.40625 -24.886719 19.523438 -24.886719 L 38.511719 -24.886719 L 38.511719 -22.386719 L 36.011719 -22.386719 L 36.011719 -37.445312 L 38.511719 -37.445312 L 38.511719 -34.945312 L 19.523438 -34.945312 C 17.125 -34.945312 14.890625 -34.78125 12.824219 -34.445312 C 10.964844 -34.144531 9.324219 -33.542969 7.90625 -32.640625 C 6.570312 -31.789062 5.453125 -30.496094 4.546875 -28.757812 C 3.773438 -27.285156 3.421875 -25.546875 3.496094 -23.542969 C 3.566406 -21.59375 4.238281 -19.707031 5.511719 -17.890625 L 3.464844 -16.457031 L 3.464844 -18.957031 L 9.332031 -18.957031 L 10.074219 -17.84375 C 10.148438 -17.734375 10.234375 -17.609375 10.328125 -17.476562 C 10.515625 -17.214844 10.683594 -16.9375 10.832031 -16.640625 L 12.636719 -13.027344 L 0.601562 -13.027344 L 0.601562 -15.523438 L 3.097656 -15.523438 Z M 3.097656 0 "/></g></g></g><g fill="#ffffff" fill-opacity="1"><g transform="translate(3.289504, 62.96759)"><g><path d="M 0.59375 0 L 0.59375 -15.53125 L 8.59375 -15.53125 C 8.507812 -15.707031 8.410156 -15.867188 8.296875 -16.015625 C 8.179688 -16.171875 8.082031 -16.316406 8 -16.453125 L 3.46875 -16.453125 C 1.90625 -18.671875 1.078125 -21 0.984375 -23.4375 C 0.898438 -25.882812 1.347656 -28.046875 2.328125 -29.921875 C 3.441406 -32.046875 4.851562 -33.648438 6.5625 -34.734375 C 8.269531 -35.828125 10.222656 -36.550781 12.421875 -36.90625 C 14.617188 -37.257812 16.984375 -37.4375 19.515625 -37.4375 L 38.515625 -37.4375 L 38.515625 -22.390625 L 19.515625 -22.390625 C 18.234375 -22.390625 17.25 -21.929688 16.5625 -21.015625 C 15.875 -20.109375 15.617188 -19.144531 15.796875 -18.125 C 15.972656 -17.320312 16.378906 -16.585938 17.015625 -15.921875 C 17.660156 -15.253906 18.539062 -14.921875 19.65625 -14.921875 C 20.988281 -14.921875 21.941406 -15.351562 22.515625 -16.21875 C 23.097656 -17.082031 23.300781 -18.046875 23.125 -19.109375 C 22.945312 -20.179688 22.34375 -20.960938 21.3125 -21.453125 L 34.640625 -21.453125 C 36.109375 -19.898438 37.109375 -18.265625 37.640625 -16.546875 C 38.171875 -14.835938 38.359375 -13.179688 38.203125 -11.578125 C 38.046875 -9.984375 37.640625 -8.546875 36.984375 -7.265625 C 35.867188 -5.128906 34.441406 -3.550781 32.703125 -2.53125 C 30.972656 -1.507812 29 -0.832031 26.78125 -0.5 C 24.5625 -0.164062 22.1875 0 19.65625 0 Z M 0.59375 0 "/></g></g></g></g></g></svg>